<?xml version="1.0" standalone="no"?><!-- Generator: Gravit.io --><svg xmlns="http://www.w3.org/2000/svg" xmlns:xlink="http://www.w3.org/1999/xlink" style="isolation:isolate" viewBox="0 0 48 48" width="48" height="48"><defs><clipPath id="_clipPath_tuq7ySsNpguxGCIJhwrZcODAIzGJCktX"><rect width="48" height="48"/></clipPath></defs><g clip-path="url(#_clipPath_tuq7ySsNpguxGCIJhwrZcODAIzGJCktX)"><g id="Logo"><path d=" M 27.574 35.808 L 19.864 35.808 C 19.65 33.107 18.124 31.013 16.273 31.013 C 14.422 31.013 12.896 33.107 12.682 35.808 L 11.265 35.808 C 11.078 34.383 11.078 33.215 11.265 32.306 C 11.746 29.95 12.815 27.551 13.315 26.515 C 15.168 22.676 17.641 20.671 19.391 19.42 C 22.781 16.998 30.515 16.262 32.812 17.833 C 33.132 18.053 34.134 20.421 34.596 22.514 C 35.551 26.835 36.468 32.621 35.998 35.036 C 35.897 35.553 35.398 35.808 34.896 35.808 L 34.756 35.808 C 34.542 33.107 33.016 31.013 31.165 31.013 C 29.315 31.013 27.789 33.107 27.574 35.808 Z  M 19.088 24.352 C 24.641 24.352 27.482 24.352 27.609 24.352 C 27.799 24.352 28.376 24.352 28.376 24.352 C 28.854 23.755 29.243 21.255 28.712 19.25 C 28.436 18.206 23.203 18.386 22.02 19.152 C 21.356 19.582 20.46 20.184 19.809 21.534 C 19.633 21.898 19.257 22.742 19.088 23.57 C 19.023 23.889 19.023 24.15 19.088 24.352 Z  M 16.273 41.268 C 14.511 41.268 13.082 39.116 13.082 36.461 C 13.082 33.806 14.511 31.654 16.273 31.654 C 18.036 31.654 19.464 33.806 19.464 36.461 C 19.464 39.116 18.036 41.268 16.273 41.268 Z  M 31.165 41.268 C 29.403 41.268 27.974 39.116 27.974 36.461 C 27.974 33.806 29.403 31.654 31.165 31.654 C 32.928 31.654 34.357 33.806 34.357 36.461 C 34.357 39.116 32.928 41.268 31.165 41.268 Z " fill-rule="evenodd" fill="rgb(5,173,245)"/><rect x="2.866" y="12.763" width="42.267" height="32.237" transform="matrix(1,0,0,1,0,0)" fill="none" vector-effect="non-scaling-stroke" stroke-width="5" stroke="rgb(5,173,245)" stroke-linejoin="round" stroke-linecap="square" stroke-miterlimit="3"/><polygon points="47,10.793,1,10.793,24,0" fill="rgb(5,173,245)"/></g></g></svg>