<?xml version="1.0" encoding="UTF-8"?>
<svg width="48px" height="48px" viewBox="0 0 48 48" version="1.1" xmlns="http://www.w3.org/2000/svg" xmlns:xlink="http://www.w3.org/1999/xlink">
    <!-- Generator: Sketch 48.2 (47327) - http://www.bohemiancoding.com/sketch -->
    <title>Logo black</title>
    <desc>Created with Sketch.</desc>
    <defs></defs>
    <g id="Symbols" stroke="none" stroke-width="1" fill="none" fill-rule="evenodd">
        <g id="Logo-black">
            <g id="ic_date_range_48px">
                <path d="M37.8964401,8.00776699 L35.9029126,8.00776699 L35.9029126,4 L31.9158576,4 L31.9158576,8.00776699 L15.9676375,8.00776699 L15.9676375,4 L11.9805825,4 L11.9805825,8.00776699 L9.98705502,8.00776699 C7.77423948,8.00776699 6.01993528,9.81126214 6.01993528,12.015534 L6,40.0699029 C6,42.2741748 7.77423948,44.0776699 9.98705502,44.0776699 L37.8964401,44.0776699 C40.0893204,44.0776699 41.8834951,42.2741748 41.8834951,40.0699029 L41.8834951,12.015534 M37.8964401,40.0699029 L9.98705502,40.0699029 L9.98705502,18.0271845 L37.8964401,18.0271845 L37.8964401,40.0699029 Z" id="Shape" fill="#000000" fill-rule="nonzero"></path>
                <polygon id="Shape" points="0 0 48 0 48 48 0 48"></polygon>
            </g>
            <g id="Group" transform="translate(14.000000, 20.000000)" fill="#000000">
                <path d="M13.1295456,14.9273142 L7.0385216,14.9273142 C6.86936016,12.7935372 5.66377316,11.1392405 4.20168067,11.1392405 C2.73958819,11.1392405 1.53400119,12.7935372 1.36483975,14.9273142 L0.244793312,14.9273142 C0.0978407934,13.8013072 0.0978407934,12.8790978 0.244793312,12.1606862 C0.625415284,10.2999268 1.46972038,8.40450849 1.86468706,7.58604461 C3.32840791,4.55287068 5.28229351,2.96913034 6.66471073,1.98121956 C9.34295664,0.0672763732 15.4529145,-0.513601104 17.2668707,0.727501605 C17.5202984,0.900895989 18.3116692,2.77209902 18.6767502,4.42484356 C19.4309486,7.83914669 20.1553343,12.4094392 19.7842685,14.3174103 C19.7047473,14.7262976 19.3105162,14.9273142 18.9137364,14.9273142 L18.8032275,14.9273142 C18.634066,12.7935372 17.428479,11.1392405 15.9663866,11.1392405 C14.5042941,11.1392405 13.2987071,12.7935372 13.1295456,14.9273142 Z M6.42530177,5.87715093 C10.8125457,5.87715093 13.0563295,5.87715093 13.156653,5.87715093 C13.3071382,5.87715093 13.7625916,5.87715093 13.7625916,5.87715093 C14.1406456,5.40542008 14.4478431,3.43064897 14.0282894,1.84651553 C13.8098695,1.02181481 9.67635274,1.16388024 8.74138437,1.76939295 C8.2172717,2.10882356 7.50938233,2.58448386 6.99479425,3.65083142 C6.85593912,3.93857191 6.55911385,4.60492824 6.42530177,5.25909984 C6.37363891,5.51166582 6.37363891,5.71768285 6.42530177,5.87715093 Z M4.20168067,19.2405063 C2.80936618,19.2405063 1.68067227,17.5403218 1.68067227,15.443038 C1.68067227,13.3457541 2.80936618,11.6455696 4.20168067,11.6455696 C5.59399517,11.6455696 6.72268908,13.3457541 6.72268908,15.443038 C6.72268908,17.5403218 5.59399517,19.2405063 4.20168067,19.2405063 Z M15.9663866,19.2405063 C14.5740721,19.2405063 13.4453782,17.5403218 13.4453782,15.443038 C13.4453782,13.3457541 14.5740721,11.6455696 15.9663866,11.6455696 C17.358701,11.6455696 18.487395,13.3457541 18.487395,15.443038 C18.487395,17.5403218 17.358701,19.2405063 15.9663866,19.2405063 Z" id="Combined-Shape"></path>
            </g>
        </g>
    </g>
</svg>