<svg xmlns="http://www.w3.org/2000/svg" xmlns:xlink="http://www.w3.org/1999/xlink" version="1.1" x="0px" y="0px" viewBox="0 0 595.3 744.125" enable-background="new 0 0 595.3 595.3" xml:space="preserve"><path d="M189.9,209.7c-10.1,0-17.9-7.7-17.9-17.9V118c0-10.1,7.7-17.9,17.9-17.9c10.1,0,17.9,7.7,17.9,17.9v73.8  C207.8,202,200,209.7,189.9,209.7z"/><path d="M405.4,209.7c-10.1,0-17.9-7.7-17.9-17.9V118c0-10.1,7.7-17.9,17.9-17.9s17.9,7.7,17.9,17.9v73.8  C423.2,202,415.5,209.7,405.4,209.7z"/><path d="M490.6,129.2h-45c-7.8,0-14.2,6.3-14.2,14.2v47.9c0,14.8-12.2,26.1-26.1,26.1c-14.8,0-26.1-11.3-26.1-26.1v-47.9  c0-7.8-6.3-14.2-14.2-14.2H230c-7.8,0-14.2,6.3-14.2,14.2v47.9c0,14.8-12.2,26.1-26.1,26.1c-14.8,0-26.1-11.3-26.1-26.1v-47.9  c0-7.8-6.3-14.2-14.2-14.2h-45.2c-7.8,0-14.2,6.3-14.2,14.2v337.4c0,7.8,6.3,14.2,14.2,14.2h386.4c7.8,0,14.2-6.3,14.2-14.2V143.4  C504.8,135.6,498.5,129.2,490.6,129.2z M470.5,446.8c0,7.8-6.3,14.2-14.2,14.2H137.7c-7.8,0-14.2-6.3-14.2-14.2V259.5  c0-7.8,6.3-14.2,14.2-14.2h318.6c7.8,0,14.2,6.3,14.2,14.2V446.8z"/><polygon points="297.4,274.7 308.1,296.3 331.9,299.8 314.7,316.7 318.7,340.5 297.4,329.2 276,340.5 280.1,316.7 262.8,299.8   286.7,296.3 "/><polygon points="202.3,274.7 213,296.3 236.9,299.8 219.6,316.7 223.7,340.5 202.3,329.2 180.9,340.5 185,316.7 167.7,299.8   191.6,296.3 "/><polygon points="393,274.7 403.7,296.3 427.5,299.8 410.3,316.7 414.3,340.5 393,329.2 371.6,340.5 375.7,316.7 358.4,299.8   382.3,296.3 "/><polygon points="297.4,365.3 308.1,386.9 331.9,390.4 314.7,407.2 318.7,431 297.4,419.8 276,431 280.1,407.2 262.8,390.4   286.7,386.9 "/><polygon points="202.3,365.3 213,386.9 236.9,390.4 219.6,407.2 223.7,431 202.3,419.8 180.9,431 185,407.2 167.7,390.4   191.6,386.9 "/><polygon points="393,365.3 403.7,386.9 427.5,390.4 410.3,407.2 414.3,431 393,419.8 371.6,431 375.7,407.2 358.4,390.4   382.3,386.9 "/><text x="0" y="610.3" fill="#ffffff" font-size="5px" font-weight="bold" font-family="'Helvetica Neue', Helvetica, Arial-Unicode, Arial, Sans-serif">Created by Yeoul Kwon</text><text x="0" y="615.3" fill="#000000" font-size="5px" font-weight="bold" font-family="'Helvetica Neue', Helvetica, Arial-Unicode, Arial, Sans-serif">from the Noun Project</text></svg>
