<svg xmlns="http://www.w3.org/2000/svg" xmlns:xlink="http://www.w3.org/1999/xlink" version="1.1" x="0px" y="0px" viewBox="0 0 91 113.75" enable-background="new 0 0 91 91" xml:space="preserve"><g><path fill="#000000" d="M47.757,55.737c-1.717,0.146-3.26,0.832-4.488,1.869l-3.029-35.848c-0.002-0.014-0.006-0.025-0.008-0.037   c-0.004-0.043-0.016-0.084-0.023-0.125c-0.014-0.07-0.023-0.141-0.045-0.207c-0.012-0.035-0.027-0.064-0.041-0.098   c-0.027-0.072-0.055-0.143-0.09-0.209c-0.014-0.023-0.029-0.043-0.043-0.064c-0.045-0.072-0.09-0.143-0.145-0.209   c-0.01-0.012-0.021-0.02-0.031-0.031c-0.063-0.072-0.131-0.141-0.203-0.199c-0.004-0.002-0.006-0.004-0.01-0.006   c-0.254-0.205-0.566-0.336-0.904-0.363c-0.004,0-0.006-0.002-0.01-0.002c-0.039-0.004-0.076,0.002-0.113,0.002   c-0.057,0-0.113-0.008-0.172-0.002c-0.006,0-0.01,0.002-0.016,0.004c-0.098,0.008-0.193,0.027-0.285,0.053   c-0.016,0.004-0.029,0.006-0.043,0.01c-0.096,0.027-0.186,0.066-0.273,0.109c-0.012,0.006-0.023,0.01-0.035,0.016   c-0.084,0.045-0.16,0.098-0.234,0.154c-0.014,0.01-0.027,0.018-0.041,0.027c-0.068,0.057-0.131,0.121-0.191,0.188   c-0.012,0.016-0.027,0.027-0.041,0.043c-0.055,0.064-0.1,0.137-0.145,0.209c-0.012,0.021-0.029,0.041-0.041,0.063   c-0.037,0.066-0.064,0.141-0.094,0.215c-0.012,0.029-0.027,0.059-0.037,0.09c-0.021,0.068-0.033,0.141-0.047,0.213   c-0.006,0.039-0.018,0.078-0.021,0.119c-0.002,0.014-0.006,0.025-0.008,0.039l-3.031,35.846c-1.227-1.035-2.77-1.721-4.49-1.867   c-4.426-0.367-8.307,2.979-8.676,7.328c-0.318,3.764,2.029,7.143,5.461,8.287c-0.488,1.166-1.389,1.729-1.461,1.773   c-0.805,0.467-1.086,1.494-0.627,2.307c0.313,0.555,0.889,0.865,1.48,0.865c0.283,0,0.57-0.072,0.836-0.221   c0.115-0.064,2.447-1.424,3.229-4.361c3.727-0.432,6.762-3.479,7.084-7.299l1.891-22.35l1.889,22.35   c0.35,4.125,3.861,7.357,7.994,7.357c0.002,0,0.002,0,0.002,0c0.227,0,0.453-0.01,0.684-0.029c2.137-0.18,4.074-1.182,5.459-2.822   s2.047-3.721,1.865-5.857C56.071,58.718,52.226,55.372,47.757,55.737z M28.263,68.358c-2.545-0.215-4.439-2.461-4.225-5.006   c0.203-2.379,2.229-4.242,4.611-4.242c0.131,0,0.264,0.004,0.393,0.016c2.545,0.217,4.439,2.461,4.225,5.004   C33.054,66.642,30.813,68.569,28.263,68.358z M53.048,63.353c0.105,1.232-0.277,2.432-1.074,3.377   c-0.799,0.945-1.916,1.523-3.148,1.629c-2.553,0.217-4.791-1.717-5.004-4.227c-0.215-2.545,1.68-4.789,4.221-5.006   c0.133-0.012,0.264-0.016,0.395-0.016C50.823,59.11,52.849,60.972,53.048,63.353z"/><path fill="#000000" d="M54.624,48.886c-0.938,0-1.699,0.76-1.699,1.699s0.762,1.701,1.699,1.701h10.545v20.918   c0,0.938,0.76,1.699,1.699,1.699s1.701-0.762,1.701-1.699v-48.01c0-3.404-2.771-6.174-6.176-6.174h-7.77   c-0.938,0-1.699,0.76-1.699,1.699s0.762,1.701,1.699,1.701h7.77c1.529,0,2.775,1.244,2.775,2.773v0.008H54.624   c-0.938,0-1.699,0.762-1.699,1.701c0,0.938,0.762,1.699,1.699,1.699h10.545v2.521H54.624c-0.938,0-1.699,0.762-1.699,1.701   c0,0.938,0.762,1.699,1.699,1.699h10.545v2.52H54.624c-0.938,0-1.699,0.762-1.699,1.701c0,0.938,0.762,1.699,1.699,1.699h10.545   v2.52H54.624c-0.938,0-1.699,0.762-1.699,1.701c0,0.938,0.762,1.699,1.699,1.699h10.545v2.521H54.624z"/></g><text x="0" y="106" fill="#000000" font-size="5px" font-weight="bold" font-family="'Helvetica Neue', Helvetica, Arial-Unicode, Arial, Sans-serif">Created by BomSymbols</text><text x="0" y="111" fill="#000000" font-size="5px" font-weight="bold" font-family="'Helvetica Neue', Helvetica, Arial-Unicode, Arial, Sans-serif">from the Noun Project</text></svg>